<?xml version="1.0" encoding="UTF-8" standalone="no"?>
<!-- Created with Inkscape (http://www.inkscape.org/) -->

<svg
   width="110.39278mm"
   height="117.78668mm"
   viewBox="0 0 110.39278 117.78668"
   version="1.1"
   id="svg5"
   xml:space="preserve"
   xmlns:inkscape="http://www.inkscape.org/namespaces/inkscape"
   xmlns:sodipodi="http://sodipodi.sourceforge.net/DTD/sodipodi-0.dtd"
   xmlns="http://www.w3.org/2000/svg"
   xmlns:svg="http://www.w3.org/2000/svg"><sodipodi:namedview
     id="namedview7"
     pagecolor="#ffffff"
     bordercolor="#000000"
     borderopacity="0.25"
     inkscape:showpageshadow="2"
     inkscape:pageopacity="0.0"
     inkscape:pagecheckerboard="0"
     inkscape:deskcolor="#d1d1d1"
     inkscape:document-units="mm"
     showgrid="false" /><defs
     id="defs2" /><g
     inkscape:label="Layer 1"
     inkscape:groupmode="layer"
     id="layer1"
     transform="translate(-44.257737,-51.619105)"><path
       id="rect1024"
       style="fill:none;fill-opacity:0.9;stroke:#000000;stroke-width:9;stroke-linecap:round;stroke-linejoin:round;stroke-dasharray:none;paint-order:stroke fill markers"
       d="m 131.81765,67.735035 c 0.99432,0.538812 1.95937,1.124267 2.89225,1.753472 1.86575,1.258408 3.60283,2.691812 5.18807,4.277054 6.34097,6.340972 10.25255,15.111322 10.25255,24.828876 v 31.229933 c 0,19.43511 -15.64632,35.08142 -35.08142,35.08142 H 83.839161 c -19.435107,0 -35.081421,-15.64631 -35.081421,-35.08142 V 98.594437 c 0,-9.717554 3.911578,-18.48791 10.252545,-24.828876 1.585242,-1.585242 3.32232,-3.018646 5.188077,-4.277055 0.932878,-0.629205 1.897925,-1.21466 2.892247,-1.753472"
       sodipodi:nodetypes="cssssssssssc"
       inkscape:export-filename="itnetwork-logo.svg"
       inkscape:export-xdpi="96"
       inkscape:export-ydpi="96" /><path
       style="fill:none;fill-opacity:0.9;stroke:#000000;stroke-width:9;stroke-linecap:round;stroke-linejoin:round;stroke-dasharray:none;stroke-opacity:1;paint-order:stroke fill markers"
       d="m 83.089101,129.63103 16.256563,20.65186 16.196356,-20.47123 -9.95716,-39.831836 c -4.17362,-1.851663 -8.28651,-1.759686 -12.346615,0.02127 z"
       id="path1853"
       sodipodi:nodetypes="cccccc" /><path
       style="fill:none;fill-opacity:0.9;stroke:#000000;stroke-width:9;stroke-linecap:round;stroke-linejoin:round;stroke-dasharray:none;stroke-opacity:1;paint-order:stroke fill markers"
       d="m 83.275801,60.881593 c 10.268378,-6.354893 21.147669,-6.684503 32.228929,0 l -8.47234,12.006021 c -5.58168,-2.215982 -10.411482,-2.064219 -15.369403,0.127722 z"
       id="path2021"
       sodipodi:nodetypes="ccccc" /></g></svg>
